<svg height="512pt" viewBox="-44 0 512 512.018" width="512pt" xmlns="http://www.w3.org/2000/svg"><path d="m416.039062 8.011719v264c0 35.359375-28.636718 64-64 64-35.277343 0-64-28.640625-64-64v-264zm0 0" fill="#e6e9ed"/><path d="m232.039062 312.011719v192h-224v-192c0-34.402344 15.523438-65.203125 40-85.761719v117.761719h.082032c0 39.757812 32.238281 71.917969 71.917968 71.917969 39.761719 0 71.921876-32.167969 71.921876-71.917969h.078124v-117.761719c24.480469 20.480469 40 51.359375 40 85.761719zm0 0" fill="#eac6bb"/><path d="m192.039062 226.25v28.183594c10.121094 16.832031 15.976563 36.519531 15.976563 57.570312v192h24.023437v-191.992187c0-34.402344-15.519531-65.28125-40-85.761719zm0 0" fill="#d3b1a9"/><path d="m191.960938 344.011719c0 39.757812-32.167969 71.917969-71.921876 71.917969-39.679687 0-71.917968-32.167969-71.917968-71.917969h-.082032v-31.921875h.082032c0 39.679687 32.238281 71.921875 71.917968 71.921875 39.761719 0 71.921876-32.242188 71.921876-71.921875h.078124v31.921875zm0 0" fill="#d3b1a9"/><path d="m192.039062 226.25v85.839844h-.078124c0 39.679687-32.167969 71.921875-71.921876 71.921875-39.679687 0-71.917968-32.242188-71.917968-71.921875h-.082032v-184.078125c0-8.800781 7.121094-16 16-16h112c8.882813 0 16 7.117187 16 16zm0 0" fill="#ec87c0"/><path d="m176.039062 112.011719h-24.023437c8.882813 0 16 7.117187 16 16v184.078125h-.078125c0 35.574218-25.886719 65.105468-59.898438 70.832031 3.90625.664063 7.90625 1.089844 12 1.089844 39.761719 0 71.921876-32.242188 71.921876-71.921875h.078124v-184.078125c0-8.882813-7.117187-16-16-16zm0 0" fill="#d770ad"/><path d="m232.007812 320.019531c-4.421874 0-8-3.578125-8-8 0-30.816406-13.535156-59.839843-37.144531-79.664062-3.390625-2.832031-3.832031-7.882813-.980469-11.265625 2.832032-3.382813 7.871094-3.824219 11.261719-.984375 27.242188 22.855469 42.855469 56.359375 42.855469 91.914062.007812 4.421875-3.566406 8-7.992188 8zm0 0"/><path d="m8.007812 320.019531c-4.421874 0-7.9999995-3.578125-7.9999995-8 0-35.53125 15.6171875-69.035156 42.8476565-91.914062 3.386719-2.847657 8.425781-2.40625 11.273437.976562 2.839844 3.382813 2.40625 8.433594-.976562 11.273438-23.605469 19.832031-37.152344 48.871093-37.152344 79.664062.007812 4.421875-3.566406 8-7.992188 8zm0 0"/><path d="m120.007812 392.019531c-44.070312 0-79.917968-35.859375-79.917968-79.929687 0-4.425782 3.574218-8 8-8 4.421875 0 8 3.574218 8 8 0 35.25 28.671875 63.929687 63.917968 63.929687 35.257813 0 63.9375-28.679687 63.9375-63.929687 0-4.425782 3.574219-8 8-8 4.421876 0 8 3.574218 8 8 0 44.070312-35.855468 79.929687-79.9375 79.929687zm0 0"/><path d="m120.007812 423.953125c-44.070312 0-79.917968-35.855469-79.917968-79.925781 0-4.425782 3.574218-8 8-8 4.421875 0 8 3.574218 8 8 0 35.246094 28.671875 63.925781 63.917968 63.925781 35.257813 0 63.9375-28.679687 63.9375-63.925781 0-4.425782 3.574219-8 8-8 4.421876 0 8 3.574218 8 8 0 44.070312-35.855468 79.925781-79.9375 79.925781zm0 0"/><path d="m48.007812 352.027344c-4.421874 0-8-3.578125-8-8v-216.007813c0-4.425781 3.578126-8 8-8 4.425782 0 8 3.574219 8 8v216.007813c0 4.421875-3.574218 8-8 8zm0 0"/><path d="m192.023438 352.027344c-4.421876 0-8-3.578125-8-8v-216.007813c0-4.425781 3.578124-8 8-8 4.425781 0 8 3.574219 8 8v216.007813c0 4.421875-3.574219 8-8 8zm0 0"/><path d="m8.007812 512.019531c-4.421874 0-7.9999995-3.578125-7.9999995-8v-192c0-4.425781 3.5781255-8 7.9999995-8 4.425782 0 8 3.574219 8 8v192c0 4.421875-3.574218 8-8 8zm0 0"/><path d="m232.007812 512.019531c-4.421874 0-8-3.578125-8-8v-192c0-4.425781 3.578126-8 8-8 4.425782 0 8 3.574219 8 8v192c0 4.421875-3.574218 8-8 8zm0 0"/><path d="m48.007812 136.019531c-4.421874 0-8-3.578125-8-8 0-13.234375 10.769532-24 24-24 4.425782 0 8 3.574219 8 8 0 4.421875-3.574218 8-8 8-4.414062 0-8 3.582031-8 8 0 4.421875-3.574218 8-8 8zm0 0"/><path d="m192.023438 136.019531c-4.421876 0-8-3.578125-8-8 0-4.417969-3.589844-8.007812-8.015626-8.007812-4.421874 0-8-3.578125-8-8 0-4.425781 3.578126-8 8-8 13.242188 0 24.015626 10.773437 24.015626 24.007812 0 4.421875-3.574219 8-8 8zm0 0"/><path d="m176.007812 120.019531h-112c-4.421874 0-8-3.578125-8-8 0-4.425781 3.578126-8 8-8h112c4.425782 0 8 3.574219 8 8 0 4.421875-3.574218 8-8 8zm0 0"/><path d="m352.039062 344.019531c-39.703124 0-72-32.296875-72-72 0-4.425781 3.578126-8 8-8 4.425782 0 8 3.574219 8 8 0 30.871094 25.128907 56 56 56 30.875 0 56-25.128906 56-56 0-4.425781 3.578126-8 8-8 4.425782 0 8 3.574219 8 8 0 39.703125-32.292968 72-72 72zm0 0"/><path d="m288.039062 280.019531c-4.421874 0-8-3.578125-8-8v-264c0-4.425781 3.578126-7.9999998 8-7.9999998 4.425782 0 8 3.5742188 8 7.9999998v264c0 4.421875-3.574218 8-8 8zm0 0"/><path d="m416.023438 280.019531c-4.421876 0-8-3.578125-8-8v-264c0-4.425781 3.578124-7.9999998 8-7.9999998 4.425781 0 8 3.5742188 8 7.9999998v264c0 4.421875-3.574219 8-8 8zm0 0"/><path d="m288.039062 36.480469c-2.046874 0-4.09375-.78125-5.652343-2.34375-3.128907-3.125-3.128907-8.183594 0-11.3125l20.453125-20.460938c3.128906-3.128906 8.183594-3.128906 11.3125 0 3.128906 3.125 3.128906 8.183594 0 11.3125l-20.457032 20.460938c-1.558593 1.5625-3.605468 2.34375-5.65625 2.34375zm0 0"/><path d="m288.023438 104.371094c-2.046876 0-4.09375-.785156-5.65625-2.34375-3.125-3.128906-3.125-8.183594 0-11.3125l88.363281-88.351563c3.125-3.128906 8.183593-3.128906 11.308593 0 3.128907 3.125 3.128907 8.183594 0 11.3125l-88.359374 88.351563c-1.558594 1.558594-3.605469 2.34375-5.65625 2.34375zm0 0"/><path d="m288.039062 172.242188c-2.046874 0-4.09375-.785157-5.652343-2.34375-3.128907-3.128907-3.128907-8.183594 0-11.3125l128-128c3.125-3.128907 8.183593-3.128907 11.308593 0 3.128907 3.128906 3.128907 8.183593 0 11.3125l-128 128c-1.558593 1.566406-3.605468 2.34375-5.65625 2.34375zm0 0"/><path d="m288.039062 240.136719c-2.046874 0-4.09375-.78125-5.652343-2.34375-3.128907-3.128907-3.128907-8.183594 0-11.3125l128-127.992188c3.125-3.125 8.183593-3.125 11.308593 0 3.128907 3.128907 3.128907 8.1875 0 11.3125l-128 127.992188c-1.558593 1.5625-3.605468 2.34375-5.65625 2.34375zm0 0"/><path d="m292.511719 303.539062c-2.046875 0-4.09375-.785156-5.65625-2.34375-3.125-3.128906-3.125-8.183593 0-11.3125l123.53125-123.527343c3.125-3.128907 8.183593-3.128907 11.308593 0 3.128907 3.125 3.128907 8.183593 0 11.308593l-123.527343 123.53125c-1.566407 1.566407-3.613281 2.34375-5.65625 2.34375zm0 0"/><path d="m325.601562 338.320312c-2.046874 0-4.097656-.78125-5.65625-2.34375-3.128906-3.125-3.128906-8.183593 0-11.3125l90.441407-90.429687c3.125-3.128906 8.183593-3.128906 11.308593 0 3.128907 3.128906 3.128907 8.183594 0 11.3125l-90.4375 90.429687c-1.5625 1.5625-3.609374 2.34375-5.65625 2.34375zm0 0"/><path d="m416.039062 36.480469c-2.046874 0-4.09375-.78125-5.652343-2.34375l-20.441407-20.429688c-3.128906-3.128906-3.128906-8.183593 0-11.3125 3.128907-3.128906 8.183594-3.128906 11.3125 0l20.4375 20.429688c3.128907 3.128906 3.128907 8.1875 0 11.3125-1.558593 1.5625-3.605468 2.34375-5.65625 2.34375zm0 0"/><path d="m416.074219 104.402344c-2.050781 0-4.097657-.785156-5.65625-2.34375l-88.410157-88.402344c-3.125-3.125-3.125-8.183594 0-11.308594 3.128907-3.128906 8.183594-3.128906 11.3125 0l88.410157 88.398438c3.125 3.128906 3.125 8.183594 0 11.3125-1.5625 1.558594-3.609375 2.34375-5.65625 2.34375zm0 0"/><path d="m416.007812 172.21875c-2.046874 0-4.09375-.785156-5.65625-2.34375l-127.964843-127.976562c-3.128907-3.128907-3.128907-8.183594 0-11.3125 3.125-3.128907 8.183593-3.128907 11.308593 0l127.96875 127.976562c3.128907 3.128906 3.128907 8.183594 0 11.3125-1.558593 1.566406-3.605468 2.34375-5.65625 2.34375zm0 0"/><path d="m416.058594 240.152344c-2.050782 0-4.097656-.78125-5.65625-2.34375l-128.128906-128.132813c-3.128907-3.128906-3.128907-8.1875 0-11.3125 3.128906-3.128906 8.183593-3.128906 11.3125 0l128.128906 128.132813c3.125 3.128906 3.125 8.1875 0 11.3125-1.5625 1.5625-3.609375 2.34375-5.65625 2.34375zm0 0"/><path d="m411.546875 303.515625c-2.050781 0-4.097656-.785156-5.65625-2.34375l-123.523437-123.523437c-3.125-3.125-3.125-8.183594 0-11.308594 3.128906-3.128906 8.1875-3.128906 11.3125 0l123.519531 123.511718c3.128906 3.125 3.128906 8.183594 0 11.308594-1.566407 1.570313-3.613281 2.355469-5.652344 2.355469zm0 0"/><path d="m378.496094 338.347656c-2.046875 0-4.09375-.785156-5.65625-2.34375l-90.453125-90.457031c-3.128907-3.128906-3.128907-8.183594 0-11.3125 3.125-3.128906 8.183593-3.128906 11.308593 0l90.457032 90.457031c3.128906 3.125 3.128906 8.183594 0 11.3125-1.566406 1.558594-3.605469 2.34375-5.65625 2.34375zm0 0"/></svg>