<svg height="512" viewBox="0 0 59 60" width="512" xmlns="http://www.w3.org/2000/svg"><g id="025---Clean-Face" fill="none"><g id="Layer_3" transform="translate(0 1)"><path id="Shape" d="m8.72 35.27-.03.01c-1.74-.26-6.3-1.62-6.3-8.78 0-6.11 2.67-5.45 4.31-4.48.07.05.14.1.21.14.10052982.0608838.19736598.1276673.29.2-.00952451 4.3485245.5007617 8.6826001 1.52 12.91z" fill="#dfc49c"/><path id="Shape" d="m47.65 26.5c0 4.71-1.97 6.91-3.82 7.95-.4866834-.6666835-1.1064145-1.2251225-1.82-1.64.6373493-3.477173.9586601-7.0048982.96-10.54.0409248-.0333379.0843902-.0634294.13-.09.07-.05.14-.09.21-.14 1.64-.98 4.34-1.69 4.34 4.46z" fill="#dfc49c"/><path id="Shape" d="m42.43 20.96c-1.2916784-2.2980945-2.7418542-4.503431-4.34-6.6-.32-.42-.65-.85-1-1.27-.33-.42-.68-.84-1.04-1.26l-.03-.03h-.01c-1.1466038-.3168196-2.3228271-.5145323-3.51-.59-1.91-.16-4.29-.18-7.42-.18-2.9102375.1073976-5.777932-.7234625-8.18-2.37-3.650448 3.6247155-6.7772626 7.741071-9.29 12.23-.15.27-.29.53-.42.77 0 .24 0 .47.01.7-.00952451 4.3485245.5007617 8.6826001 1.52 12.91.44521416 1.6801676 1.04095751 3.3167884 1.78 4.89.31.66.65 1.33 1.01 1.98.9277024-1.5578724 1.440687-3.3274972 1.49-5.14 0 0 0 8 7 8-1.8181334-.0837615-3.5810173.6367533-4.82 1.97 2.6266145 2.615725 6.193289 4.0676137 9.9 4.03 5.84 0 9.81-3.22 12.48-7.18-2.9352625-.735585-4.8633959-3.5418084-4.4974483-6.5456282s2.9114338-5.2650337 5.9374483-5.2743718h.14c.2578313.0079841.5149557.0313591.77.07.3569064.0559107.7082432.1429084 1.05.26.0715979.0222668.1417346.0489855.21.08.0616102.0189603.1217673.0423547.18.07.0416617.012359.0818886.0291202.12.05.1860071.0812613.366405.174801.54.28.6373493-3.477173.9586601-7.0048982.96-10.54.01-.1.01-.21.01-.31-.17-.3-.35-.64-.55-1zm-17.43 21.04c-3.52 0-5.87-2.4-4.69-2.4s3.52-1.6 4.69-1.6 3.52 1.6 4.69 1.6-1.17 2.4-4.69 2.4z" fill="#ffe0b2"/><path id="Shape" d="m42.98 21.96c0 .1 0 .21-.01.31-.0013399 3.5351018-.3226507 7.062827-.96 10.54-.173595-.105199-.3539929-.1987387-.54-.28-.0381114-.0208798-.0783383-.037641-.12-.05-.0582327-.0276453-.1183898-.0510397-.18-.07-.0682654-.0310145-.1384021-.0577332-.21-.08-.3417568-.1170916-.6930936-.2040893-1.05-.26-.25-.03-.51-.05-.77-.06v-.01c.5386045-3.2156436.8161766-6.4695909.83-9.73.01-.1.01-.21.01-.31-.17-.3-.35-.64-.55-1-1.9645967-3.482187-4.2871718-6.7498792-6.93-9.75 1.1871729.0754677 2.3633962.2731804 3.51.59h.01l.03.03c.36.42.71.84 1.04 1.26.35.42.68.85 1 1.27 1.5981458 2.096569 3.0483216 4.3019055 4.34 6.6.2.36.38.7.55 1z" fill="#dfc49c"/><path id="Shape" d="m25 2.39c-2.9537635 1.73982315-5.6753986 3.84657031-8.1 6.27-3.650448 3.6247155-6.7772626 7.741071-9.29 12.23-.15.27-.29.53-.42.77 0 .24 0 .47.01.7-.09263402-.0723327-.18947018-.1391162-.29-.2l-.2-.16s-.37-.44-.94-1.23c-3.87048462-5.503941-5.4812163-12.2833317-4.5-18.94l.41-1.83h18.32c1.7318658.65240571 3.4046499 1.45199652 5 2.39z" fill="#00bcd4"/><path id="Shape" d="m20 0h-3c1.7318658.65240571 3.4046499 1.45199652 5 2.39-2.9537635 1.73982315-5.6753986 3.84657031-8.1 6.27-3.3799363 3.3538116-6.3104016 7.132021-8.718 11.24.191.294.384.586.588.873.57.79.94 1.23.94 1.23l.2.16c.10052982.0608838.19736598.1276673.29.2-.01-.23-.01-.46-.01-.7.13-.24.27-.5.42-.77 2.5125037-4.4899858 5.6393278-8.6073635 9.29-12.233 2.4246014-2.42342969 5.1462365-4.53017685 8.1-6.27-1.5953501-.93800348-3.2681342-1.73759429-5-2.39z" fill="#00838f"/><path id="Shape" d="m44.23 20.77c-.57.79-.94 1.23-.94 1.23l-.19.18c-.0456098.0265706-.0890752.0566621-.13.09.01-.1.01-.21.01-.31-.17-.3-.35-.64-.55-1-1.8327602-3.2551122-3.9796573-6.323065-6.41-9.16-3.1284431-3.72373849-6.8521925-6.90345557-11.02-9.41-1.5953501-.93800348-3.2681342-1.73759429-5-2.39h28.32l.41 1.83c.9812163 6.6566683-.6295154 13.436059-4.5 18.94z" fill="#009688"/><path id="Shape" d="m48.73 1.83-.41-1.83h-3l.41 1.83c.9237607 6.29847065-.4667861 12.7182916-3.914 18.07.22.371.428.728.614 1.06.2.36.38.7.55 1 0 .1 0 .21-.01.31.0409248-.0333379.0843902-.0634294.13-.09l.19-.18s.37-.44.94-1.23c3.8704846-5.503941 5.4812163-12.2833317 4.5-18.94z" fill="#00695c"/><path id="Shape" d="m36.02 11.8h-.01c-2.46-.72-5.59-.77-10.93-.77-2.9102375.1073976-5.777932-.7234625-8.18-2.37 2.4246014-2.42342969 5.1462365-4.53017685 8.1-6.27 4.1678075 2.50654443 7.8915569 5.68626151 11.02 9.41z" fill="#91562d"/><path id="Shape" d="m25 2.39c-.511.3-1 .62-1.488.938 3.3358492 2.21285013 6.3589447 4.86428111 8.988 7.883 1.1874175.0783974 2.3639751.2757187 3.512.589h.01c-3.1290445-3.72390914-6.8534805-6.90363538-11.022-9.41z" fill="#6d4122"/><path id="Shape" d="m25 42c-3.52 0-5.87-2.4-4.69-2.4s3.52-1.6 4.69-1.6 3.52 1.6 4.69 1.6-1.17 2.4-4.69 2.4z" fill="#e91e63"/><path id="Shape" d="m45 38c.0008873 2.3944573-1.4219773 4.5601987-3.62 5.51-.750661.3269533-1.5612352.4938363-2.38.49-.4857206.0017956-.9696667-.0586977-1.44-.18-2.9352625-.735585-4.8633959-3.5418084-4.4974483-6.5456282s2.9114338-5.2650337 5.9374483-5.2743718c1.0578425-.0050095 2.0975362.2747752 3.01.81.7135855.4148775 1.3333166.9733165 1.82 1.64.4161048.5522236.727884 1.175782.92 1.84.1648147.5550819.2490085 1.1309674.25 1.71z" fill="#02a9f4"/><path id="Shape" d="m44.75 36.29c-.192116-.664218-.5038952-1.2877764-.92-1.84-.4866834-.6666835-1.1064145-1.2251225-1.82-1.64-.9124638-.5352248-1.9521575-.8150095-3.01-.81-.5025038.0019853-1.0027629.0671634-1.489.194.5264033.1340051 1.0313472.3413687 1.5.616.7135855.4148775 1.3333166.9733165 1.82 1.64.4161048.5522236.727884 1.175782.92 1.84.8674095 2.912838-.5801819 6.0142059-3.37 7.22-.2820529.1207439-.5733158.2187232-.871.293.018 0 .033.013.051.017.4700094.1212175.953614.1817101 1.439.18.8187648.0038363 1.629339-.1630467 2.38-.49 2.7898181-1.2057941 4.2374095-4.307162 3.37-7.22z" fill="#0377bc"/><path id="Shape" d="m52 41.5c.0005383 2.6435722-1.8797382 4.9135715-4.4771974 5.405181s-5.1772354-.9342555-6.1428026-3.395181c2.7898181-1.2057941 4.2374095-4.307162 3.37-7.22.5631504-.1933003 1.1545996-.2913118 1.75-.29 1.3291821-.0035238 2.6135427.4803351 3.61 1.36.6564752.5574053 1.1649032 1.2685174 1.48 2.07h.01c.2658138.6576781.4016514 1.3606378.4 2.07z" fill="#3f51b5"/><path id="Shape" d="m51.6 39.43h-.01c-.3150968-.8014826-.8235248-1.5125947-1.48-2.07-.9964573-.8796649-2.2808179-1.3635238-3.61-1.36-.511025.0039047-1.0188535.0810219-1.508.229.7819306.2132757 1.5058231.5998302 2.118 1.131.6564752.5574053 1.1649032 1.2685174 1.48 2.07h.01c.5837163 1.4471827.5261852 3.0740441-.1582992 4.4763791-.6844844 1.4023351-1.9316758 2.4485193-3.4317008 2.8786209 2.0196237.5686796 4.1868532-.061246 5.5869822-1.6239089 1.4001289-1.5626629 1.7892066-3.7857933 1.0030178-5.7310911z" fill="#283593"/><path id="Shape" d="m57 36.5c0 1.9329966-1.5670034 3.5-3.5 3.5-.6754513-.0000782-1.336048-.1982573-1.9-.57h-.01c-.3150968-.8014826-.8235248-1.5125947-1.48-2.07-.3491318-1.3533226.1474769-2.7840287 1.26-3.63 1.0294521.5224431 2.2829075.2700973 3.03-.61 1.5322044.4077048 2.5989549 1.7944804 2.6 3.38z" fill="#02a9f4"/><path id="Shape" d="m54.4 33.12c-.3848256.447993-.9165712.7443525-1.5.836.8452617.789273 1.243647 1.9466224 1.0632812 3.0889391s-.9159589 2.1206169-1.9632812 2.6110609c.4674666.2268683.9803905.3444988 1.5.344 1.7542345-.0043035 3.2343058-1.3065883 3.4618463-3.0460085.2275404-1.7394202-.8677466-3.3785978-2.5618463-3.8339915z" fill="#0377bc"/><path id="Shape" d="m55 31.5c.0048075.5951983-.2086478 1.1715275-.6 1.62-.7873725.9207238-2.1215886 1.1444078-3.1661917.5308183-1.0446032-.6135895-1.4989405-1.8878519-1.0781756-3.0239173.420765-1.1360654 1.5955296-1.8069567 2.7878019-1.5920738 1.1922722.2148829 2.0588978 1.2536934 2.0565654 2.4651728z" fill="#02a9f4"/><path id="Shape" d="m52.5 29c-.5425939.0016996-1.069607.1815868-1.5.512.627875.4681501.9984275 1.2048085 1 1.988.0048075.5951983-.2086478 1.1715275-.6 1.62-.1149797.1346695-.2436741.2569962-.384.365.1105917.0918836.2290478.1738659.354.245 1.0294521.5224431 2.2829075.2700973 3.03-.61.3913522-.4484725.6048075-1.0248017.6-1.62 0-1.3807119-1.1192881-2.5-2.5-2.5z" fill="#0377bc"/><circle id="Oval" cx="54" cy="52" fill="#02a9f4" r="4"/><path id="Shape" d="m54 48c-.5146869.0021442-1.0240797.1040228-1.5.3 1.5106493.6093694 2.4998715 2.0750763 2.4998715 3.704s-.9892222 3.0946306-2.4998715 3.704c1.4960688.6053048 3.209337.2522552 4.3442174-.8952038 1.1348805-1.147459 1.4690246-2.8645145.8472667-4.3538207-.621758-1.4893061-2.0776019-2.4590745-3.6914841-2.4589755z" fill="#0377bc"/><circle id="Oval" cx="43" cy="52" fill="#02a9f4" r="2"/><path id="Shape" d="m20 45c-1.8181334-.0837615-3.5810173.6367533-4.82 1.97-1.3701563 1.7154928-2.1363865 3.8349279-2.18 6.03 0 0 0-8-7-8 2.2195391.1170057 4.3282888-.977554 5.51-2.86.9277024-1.5578724 1.440687-3.3274972 1.49-5.14 0 0 0 8 7 8z" fill="#ffeb3a"/><path id="Shape" d="m13 37c-.049313 1.8125028-.5622976 3.5821276-1.49 5.14l-.006.009c1.1833882 1.8723814 3.2837813 2.9619411 5.496 2.851-1.8181334-.0837615-3.5810173.6367533-4.82 1.97-.2512704.2755031-.479064.5715344-.681.885.9272811 1.5605116 1.4437086 3.330678 1.501 5.145.0436135-2.1950721.8098437-4.3145072 2.18-6.03 1.2389827-1.3332467 3.0018666-2.0537615 4.82-1.97-7 0-7-8-7-8z" fill="#fdd834"/></g><g id="Layer_2" fill="#000" transform="translate(-1)"><path id="Shape" d="m2.39 27.5c0 7.276 4.438 9.163 6.545 9.65.58534675 2.0473044 1.3900089 4.0254323 2.4 5.9-1.0512336 1.3042634-2.66167882 2.0286851-4.335 1.95-.55228475 0-1 .4477153-1 1s.44771525 1 1 1c5.9 0 6 6.716 6 7v.015c.0041421.5522847.4552153.9966421 1.0075.9925.5522847-.0041422.9966421-.4552153.9925-1.0075.0415667-1.6129181.4964111-3.1881742 1.321-4.575 2.7101952 2.3384736 6.179554 3.6093987 9.759 3.575 5.222 0 9.565-2.385 12.925-7.079.9548612.1474481 1.9303574.0856905 2.859-.181 1.5195582 2.6348212 4.6630931 3.8635682 7.5666544 2.957659s4.7906598-3.7042105 4.5423456-6.735659c2.1082934.256529 4.1074693-1.0008771 4.78931-3.0122948.6818406-2.0114178-.1406153-4.225315-1.97031-5.3037052.5614708-1.6058373-.1166639-3.3825397-1.6053093-4.2058852-1.4886454-.8233456-3.3540406-.4534282-4.4158426.875684-1.0618021 1.3291122-1.0106236 3.2301432.1211519 4.5002012-.3869719.5127731-.6572713 1.1038824-.792 1.732-.8193931-.3606623-1.7047448-.5472672-2.6-.548-1.42 0-.99.349-1.307-.252 1.735-1.3 3.457-3.733 3.457-8.248 0-2.567-.455-5.713-2.987-6.073 3.5953445-5.5708957 5.0310452-12.26360111 4.037-18.819l-.4-1.825c-.1020897-.45927489-.5105209-.78527047-.981-.783h-46.638c-.4686077.00008042-.87431214.32555846-.976.783l-.42 1.9c-.97609417 6.53524265.46572372 13.2020948 4.055 18.75-2.504.393-2.95 3.523-2.95 6.067zm2 0c0-3.188.773-3.877 1.009-4.012.491-.279 1.393.119 1.82.412.04013657 3.6859096.41872674 7.3603431 1.131 10.977-1.773-.734-3.96-2.604-3.96-7.377zm9.61 21.973c-.6272299-1.4414838-1.6839656-2.6543202-3.026-3.473 1.3310337-.8316455 2.3844203-2.0406381 3.026-3.473.6272299 1.4414838 1.6839656 2.6543202 3.026 3.473-1.3321084.8303851-2.385816 2.0397462-3.026 3.473zm12.08 1.527c-3.0657366.0293912-6.0398936-1.0442156-8.38-3.025.968533-.6672291 2.1243668-1.0087255 3.3-.975.5522847 0 1-.4477153 1-1s-.4477153-1-1-1c-5.9 0-6-6.716-6-7v-.015c-.0041421-.5522847-.4552153-.9966421-1.0075-.9925-.5522847.0041422-.9966421.4552153-.9925 1.0075-.0283684.9866243-.2015513 1.9637265-.514 2.9-2.625-5.495-3.229-11.79-3.293-18 2.4012975-4.3619752 5.3768269-8.3821519 8.847-11.953 2.4307546 1.43668 5.2174312 2.1586511 8.04 2.083 4.864 0 8.02.038 10.367.66 2.5143514 2.9423053 4.701523 6.1491288 6.523 9.564-.0114751 3.0552759-.2511418 6.1054274-.717 9.125-3.5077689-1.2176239-7.3555145.5189261-8.7630385 3.9549015s.1161285 7.3728822 3.4700385 8.9660985c-2.904 3.767-6.552 5.7-10.88 5.7zm-6.555-41.5c1.9814337-1.86849876 4.1513842-3.52637449 6.475-4.947 3.0357634 1.87719353 5.8161347 4.13893416 8.272 6.729-6.391-.688-10.429.612-14.747-1.782zm15.475 29.5c0-2.7614237 2.2385763-5 5-5s5 2.2385763 5 5-2.2385763 5-5 5c-2.7600532-.0033061-4.9966939-2.2399468-5-5zm18.5-8c.8284271 0 1.5.6715729 1.5 1.5s-.6715729 1.5-1.5 1.5-1.5-.6715729-1.5-1.5.6715729-1.5 1.5-1.5zm-1.5 6.5c-.0007057-.5992643.2180696-1.1780407.615-1.627 1.038454.2900926 2.1530012.0671832 3-.6.8094066.3927454 1.3431897 1.1924461 1.3954229 2.0905885.0522333.8981423-.3852485 1.7543289-1.1436706 2.2382544s-1.7192282.5199429-2.5117523.0941571c-.3265676-.6812857-.7687831-1.3007934-1.307-1.831-.0254877-.1202298-.0415366-.2422683-.048-.365zm0 5c-.0052552 1.9945761-1.322867 3.747703-3.2373221 4.3073662-1.9144551.5596633-3.9688938-.2076934-5.0476779-1.8853662 2.3352453-1.4555218 3.5940794-4.1499441 3.212-6.875 1.2818231-.1685207 2.5740559.2239229 3.5456852 1.0768039s1.5282626 2.0833432 1.5273148 3.3761961zm-4.35-15c0 3.084-.889 5.305-2.635 6.627-.2772671-.2851268-.5783594-.5460734-.9-.78.5365476-3.1468459.8184612-6.3318346.843-9.524.479-.27 1.225-.6 1.687-.335.233.134 1.005.821 1.005 4.012zm.869-25.5c1.3455062 6.77733276-.1974128 13.808723-4.257 19.4-5.149-9.141-12.71-16.143-18.692-19.4zm-45.036 0h13.639c-2.2311766 1.47785169-4.2212109 3.29080664-5.9 5.375-.345178.43133439-.2753344 1.06082203.156 1.406s1.060822.27533439 1.406-.156c2.235219-2.76009517 5.0509149-4.99401034 8.247-6.543 1.015852.39926495 2.0102011.85121146 2.979 1.354-8.394 5.404-13.755 13.477-16.271 17.964-4.06526641-5.588722-5.60839999-12.62274255-4.256-19.4z"/><path id="Shape" d="m14.447 21.735c1.042756-.5241503 2.2517403-.6098377 3.358-.238l3.879 1.293c.5246705.174522 1.091478-.1093295 1.266-.634s-.1093295-1.091478-.634-1.266l-3.879-1.29c-1.6091008-.5405204-3.367483-.4155903-4.884.347-.3224865.158024-.5354742.4768371-.5580026.8352525-.0225283.3584153.1488625.7013887.4490237.8985495.3001611.1971608.6829949.2182297 1.0029789.055198z"/><path id="Shape" d="m30 22.841c.233 0 0 .055 4.2-1.344 1.1061301-.372853 2.3155155-.2871372 3.358.238.319984.1630317.7028178.1419628 1.0029789-.055198.3001612-.1971608.471552-.5401342.4490237-.8985495-.0225284-.3584154-.2355161-.6772285-.5580026-.8352525-1.5168882-.7625374-3.2755548-.8874622-4.885-.347l-3.878 1.293c-.4648693.1544237-.7494459.6228572-.672258 1.1065845.0771879.4837274.4934154.8403342.983258.8424155z"/><path id="Shape" d="m21.945 26.679c-.1773336-.5219338-.7435921-.8019321-1.266-.626-.035.011-3.445 1.123-6.079-.853-.3960804-.2952152-.9483792-.2569791-1.3.09-.3511209.3632656-.8045884.6109286-1.3.71-.5522847 0-1 .4477153-1 1s.4477153 1 1 1c.7467355-.0400537 1.4641538-.3038155 2.059-.757.151.09.3.17.454.247-.1340903.2034842-.3087328.3771054-.513.51-.5522847 0-1 .4477153-1 1 0 1.229 1.847 1.7 3.473-.819 1.6111637.3291562 3.2791971.2483506 4.851-.235.5204627-.1794014.7980392-.7457291.621-1.267z"/><path id="Shape" d="m37.4 25.2c-2.635 1.976-6.045.865-6.076.854-.5204722-.1722367-1.0825831.1066957-1.2602194.6253498s.0954393 1.0836335.6122194 1.2666502c1.5716688.4841161 3.2398958.5649311 4.851.235.508.789 1.379 1.819 2.473 1.819.5570459.0028164 1.0126955-.4430247 1.022-1 .0056485-.2632661-.0949969-.5177078-.2792108-.7058732-.1842139-.1881653-.4364625-.2941874-.6997892-.2941268-.2215905-.1272115-.4105663-.3042052-.552-.517.15-.077.3-.155.45-.245.5942558.4549744 1.3117255.7204974 2.059.762.5522847 0 1-.4477153 1-1s-.4477153-1-1-1c-.4926367-.0993298-.9435153-.3458659-1.293-.707-.3518492-.3518644-.9088739-.3914997-1.307-.093z"/><path id="Shape" d="m22.445 34.832c2.1514356 1.439441 4.9585644 1.439441 7.11 0 .297245-.1982824.4661283-.5400812.4430332-.8966441s-.2346599-.6737195-.555-.832-.7007882-.1336383-.9980332.0646441c-1.4799362.9891491-3.4100638.9891491-4.89 0-.4595009-.306518-1.0804819-.1825009-1.387.277-.306518.4595009-.1825009 1.080482.277 1.387z"/><path id="Shape" d="m30.7 39.6c-.6735025-.1491628-1.3239644-.387957-1.934-.71-2.6-1.183-2.917-1.184-5.522 0-.6100356.322043-1.2604975.5608372-1.934.71-.3357631-.0263483-.6673993.0878551-.915748.3153501-.2483488.227495-.3911263.5478691-.394252.8846499 0 1.411 2.825 3.2 6 3.2s6-1.79 6-3.2c-.0030208-.3350044-.1443462-.6538688-.3905186-.8811048-.2461724-.2272361-.575306-.3426416-.9094814-.3188952zm-7.82 1.628c1.0008803-.5024934 2.045128-.9134986 3.12-1.228 1.076232.3152377 2.1220748.7262121 3.125 1.228-1.9562805 1.0289672-4.2937195 1.0289672-6.25 0z"/><path id="Shape" d="m27 46h-2c-.5522847 0-1 .4477153-1 1s.4477153 1 1 1h2c.5522847 0 1-.4477153 1-1s-.4477153-1-1-1z"/><circle id="Oval" cx="9" cy="11" r="1"/><path id="Shape" d="m60 53c0-2.7614237-2.2385763-5-5-5s-5 2.2385763-5 5 2.2385763 5 5 5c2.7600532-.0033061 4.9966939-2.2399468 5-5zm-8 0c0-1.6568542 1.3431458-3 3-3s3 1.3431458 3 3-1.3431458 3-3 3-3-1.3431458-3-3z"/><path id="Shape" d="m47 53c0-1.6568542-1.3431458-3-3-3s-3 1.3431458-3 3 1.3431458 3 3 3 3-1.3431458 3-3zm-4 0c0-.5522847.4477153-1 1-1s1 .4477153 1 1-.4477153 1-1 1-1-.4477153-1-1z"/><path id="Shape" d="m41 36c-1.0702387-.0315929-2.1061138.3796808-2.8632165 1.1367835s-1.1683764 1.7929778-1.1367835 2.8632165c0 .5522847.4477153 1 1 1s1-.4477153 1-1c-.0342778-.5412774.1662515-1.0710921.5503331-1.4540249s.9144946-.5818741 1.4556669-.5459751c.5522847-.0016569.9986568-.4507153.9969999-1.003-.0016568-.5522847-.4507152-.9986568-1.0029999-.997z"/><path id="Shape" d="m6 50c-.55228475 0-1 .4477153-1 1v2c0 .5522847.44771525 1 1 1s1-.4477153 1-1v-2c0-.5522847-.44771525-1-1-1z"/><path id="Shape" d="m5 59c0 .5522847.44771525 1 1 1s1-.4477153 1-1v-2c0-.5522847-.44771525-1-1-1s-1 .4477153-1 1z"/><path id="Shape" d="m8 56h2c.5522847 0 1-.4477153 1-1s-.4477153-1-1-1h-2c-.55228475 0-1 .4477153-1 1s.44771525 1 1 1z"/><path id="Shape" d="m4 54h-2c-.55228475 0-1 .4477153-1 1s.44771525 1 1 1h2c.55228475 0 1-.4477153 1-1s-.44771525-1-1-1z"/></g></g></svg>