<svg height="496pt" viewBox="-32 0 496 496.016" width="496pt" xmlns="http://www.w3.org/2000/svg"><path d="m216.007812 427.046875-80 60.960937h-72c-4.488281 0-8-3.601562-8-8v-72c0-26.480468 21.441407-48 48-48h24zm0 0" fill="#967adc"/><path d="m376.007812 408.007812v72c0 4.398438-3.601562 8-8 8h-232l80-60.960937 88-67.039063h24c26.480469 0 48 21.519532 48 48zm0 0" fill="#ac92ec"/><path d="m328.007812 360.007812h-24c26.472657.015626 47.976563 21.527344 47.976563 48v72c0 4.398438-3.601563 8-8 8h24.023437c4.398438 0 8-3.601562 8-8v-72c0-26.480468-21.519531-48-48-48zm0 0" fill="#967adc"/><path d="m304.007812 360.007812-88 67.039063-88-67.039063h40v-42c14.640626 6.398438 30.871094 10 48 10 17.039063 0 33.28125-3.601562 48-10v42zm0 0" fill="#eac6bb"/><g fill="#e6e9ed"><path d="m81.6875 100.007812c-5.597656 14.558594-20.71875 22.640626-35.519531 19.839844-2-.320312-3.921875-.878906-5.832031-1.601562-16.480469-6.398438-24.640626-24.878906-18.320313-41.359375 6.398437-16.480469 24.960937-24.71875 41.441406-18.320313 16.472657 6.402344 24.632813 24.960938 18.230469 41.441406zm0 0"/><path d="m46.089844 120.566406c14.71875 2.882813 25.917968 15.839844 25.917968 31.441406 0 17.679688-14.320312 32-32 32-17.679687 0-32-14.320312-32-32 0-17.679687 14.320313-32 32-32 2.082032 0 4.082032.160157 6.082032.558594zm0 0"/><path d="m72.007812 216.007812c0 17.671876-14.328124 32-32 32-17.671874 0-32-14.328124-32-32 0-17.671874 14.328126-32 32-32 17.671876 0 32 14.328126 32 32zm0 0"/><path d="m424.007812 216.007812c0 17.671876-14.328124 32-32 32-17.671874 0-32-14.328124-32-32 0-17.671874 14.328126-32 32-32 17.671876 0 32 14.328126 32 32zm0 0"/><path d="m392.007812 120.007812c17.679688 0 32 14.320313 32 32 0 17.679688-14.320312 32-32 32-17.679687 0-32-14.320312-32-32 0-15.441406 10.960938-28.398437 25.519532-31.359374 2.082031-.402344 4.242187-.640626 6.480468-.640626zm0 0"/><path d="m409.929688 76.886719c6.398437 16.480469-1.769532 34.960937-18.242188 41.359375-2 .800781-4.078125 1.363281-6.238281 1.683594-14.160157 2.476562-28.722657-5.042969-34.640625-18.640626-.320313-.882812-.640625-1.679687-.953125-2.5625-5.597657-16.160156 2.550781-33.917968 18.71875-40.160156 16.472656-6.398437 34.953125 1.839844 41.355469 18.320313zm0 0"/><path d="m263.929688 48.007812v48c0 4.398438-3.601563 8-8 8h-15.921876v-64h15.921876c4.398437 0 8 3.601563 8 8zm0 0"/><path d="m168.007812 48.007812c0-4.398437 3.601563-8 8-8h16v64h-16c-4.398437 0-8-3.601562-8-8zm0 0"/></g><path d="m240.007812 40.007812v64h-48v-64zm0 0" fill="#965353"/><path d="m168.007812 96.007812c0 4.398438 3.601563 8 8 8h16c0 8.800782-7.128906 16-16 16h-40c8.800782 0 16 7.121094 16 16 0 8.800782-7.199218 16-16 16h-40v56c0 14 2.398438 27.519532 6.871094 40h-62.871094c17.679688 0 32-14.320312 32-32v-64c0-18.320312 3.441407-35.839843 9.679688-52 20.878906-53.839843 73.121094-92 134.320312-92 60.71875 0 112.640626 37.601563 133.839844 90.71875.082032.402344.230469.882813.398438 1.28125.160156.398438.320312.878907.554687 1.28125 5.925781 15.757813 9.207031 32.878907 9.207031 50.71875v64c0 17.679688 14.320313 32 32 32h-62.878906c4.480469-12.480468 6.878906-26 6.878906-40v-56h-40.078124c-8.808594 0-16-7.199218-16-16 0-8.878906 7.191406-16 16-16h-40c-8.882813 0-16-7.199218-16-16h16c4.398437 0 8-3.601562 8-8v-48c0-4.398437-3.601563-8-8-8h-79.921876c-4.398437 0-8 3.601563-8 8zm0 0" fill="#844747"/><path d="m336.007812 152.007812v56c0 14-2.398437 27.519532-6.878906 40-11.039062 31.441407-34.800781 56.800782-65.121094 70-14.71875 6.398438-30.960937 10-48 10-17.128906 0-33.359374-3.601562-48-10-30.320312-13.199218-54.078124-38.558593-65.128906-70-4.472656-12.480468-6.871094-26-6.871094-40v-56h40c8.800782 0 16-7.199218 16-16 0-8.878906-7.199218-16-16-16h40c8.871094 0 16-7.199218 16-16h47.921876c0 8.800782 7.117187 16 16 16h40c-8.808594 0-16 7.121094-16 16 0 8.800782 7.191406 16 16 16zm0 0" fill="#eac6bb"/><path d="m311.984375 152.007812v56c0 14-2.398437 27.519532-6.878906 40-11.042969 31.441407-34.800781 56.800782-65.113281 70-11.214844 4.878907-23.335938 8.105469-36.015626 9.367188 3.960938.402344 7.96875.632812 12.03125.632812 17.039063 0 33.28125-3.601562 48-10 30.320313-13.199218 54.082032-38.558593 65.121094-70 4.480469-12.480468 6.878906-26 6.878906-40v-56zm0 0" fill="#d3b1a9"/><path d="m360.007812 152.007812c0 17.679688 14.320313 32 32 32-17.679687 0-32 14.320313-32 32zm0 0" fill="#773e3e"/><path d="m72.007812 152.007812c0 17.679688-14.320312 32-32 32 17.679688 0 32 14.320313 32 32zm0 0" fill="#773e3e"/><path d="m46.167969 119.847656c-.007813 0-.015625-.007812-.03125-.007812v.746094c14.214843 2.804687 25.039062 15.03125 25.742187 29.925781h.199219c.179687-17.777344 3.539063-34.785157 9.609375-50.503907-5.597656 14.558594-20.71875 22.640626-35.519531 19.839844zm0 0" fill="#773e3e"/><path d="m81.6875 100.007812c.105469-.253906.222656-.496093.320312-.75h-.113281c-.085937.253907-.101562.503907-.207031.75zm0 0" fill="#773e3e"/><path d="m385.792969 119.847656c.007812 0 .015625-.007812.03125-.007812v.746094c-14.214844 2.804687-25.039063 15.03125-25.746094 29.925781h-.199219c-.175781-17.777344-3.535156-34.785157-9.605468-50.503907 5.589843 14.558594 20.710937 22.640626 35.519531 19.839844zm0 0" fill="#773e3e"/><path d="m350.265625 100.007812c-.105469-.253906-.226563-.496093-.320313-.75h.109376c.097656.253907.113281.503907.210937.75zm0 0" fill="#773e3e"/><path d="m55.992188 416.039062c-4.425782 0-8-3.574218-8-8 0-30.886718 25.128906-56.015624 56.015624-56.015624 4.425782 0 8 3.578124 8 8 0 4.425781-3.574218 8-8 8-22.0625 0-40.015624 17.953124-40.015624 40.015624 0 4.425782-3.578126 8-8 8zm0 0"/><path d="m375.992188 416.03125c-4.425782 0-8-3.574219-8-8 0-22.054688-17.945313-40-40-40-4.425782 0-8-3.574219-8-8 0-4.421875 3.574218-8 8-8 30.871093 0 56 25.128906 56 56 0 4.425781-3.578126 8-8 8zm0 0"/><path d="m167.992188 368.03125-63.984376-.007812c-4.421874 0-8-3.582032-8-8 0-4.421876 3.585938-8 8-8l63.984376.007812c4.421874 0 8 3.585938 8 8 0 4.425781-3.585938 8-8 8zm0 0"/><path d="m327.992188 368.03125-64-.007812c-4.425782 0-8-3.582032-8-8 0-4.421876 3.582031-8 8-8l64 .007812c4.421874 0 8 3.585938 8 8 0 4.425781-3.585938 8-8 8zm0 0"/><path d="m55.992188 488.015625c-4.425782 0-8-3.574219-8-8v-71.976563c0-4.421874 3.574218-8 8-8 4.421874 0 8 3.578126 8 8v71.976563c0 4.425781-3.578126 8-8 8zm0 0"/><path d="m63.992188 496.015625c-8.824219 0-16-7.175781-16-16 0-4.421875 3.574218-8 8-8 4.421874 0 8 3.578125 8 8v.015625c4.421874 0 8 3.570312 8 7.992188 0 4.417968-3.578126 7.992187-8 7.992187zm0 0"/><path d="m367.992188 496.015625c-4.425782 0-8-3.574219-8-8 0-4.421875 3.574218-8 8-8h.015624c0-4.421875 3.566407-8 7.992188-8 4.414062 0 7.992188 3.578125 7.992188 8 0 8.824219-7.175782 16-16 16zm0 0"/><path d="m375.992188 488.015625c-4.425782 0-8-3.574219-8-8v-71.984375c0-4.421875 3.574218-8 8-8 4.421874 0 8 3.578125 8 8v71.984375c0 4.425781-3.578126 8-8 8zm0 0"/><path d="m367.992188 496.015625h-304c-4.425782 0-8-3.574219-8-8 0-4.421875 3.574218-8 8-8h304c4.421874 0 8 3.578125 8 8 0 4.425781-3.578126 8-8 8zm0 0"/><path d="m167.992188 368.03125c-4.425782 0-8-3.574219-8-8v-42c0-4.421875 3.574218-8 8-8 4.421874 0 8 3.578125 8 8v42c0 4.425781-3.578126 8-8 8zm0 0"/><path d="m263.992188 368.023438c-4.425782 0-8-3.574219-8-8v-41.992188c0-4.421875 3.574218-8 8-8 4.421874 0 8 3.578125 8 8v41.992188c0 4.425781-3.578126 8-8 8zm0 0"/><path d="m215.992188 336.023438c-70.578126 0-128-57.421876-128-128 0-4.414063 3.574218-8 8-8 4.421874 0 8 3.585937 8 8 0 61.761718 50.238281 112 112 112 61.761718 0 112-50.238282 112-112 0-4.414063 3.574218-8 8-8 4.421874 0 8 3.585937 8 8 0 70.578124-57.425782 128-128 128zm0 0"/><path d="m136 496c-2.414062 0-4.800781-1.089844-6.375-3.160156-2.671875-3.503906-1.992188-8.527344 1.519531-11.207032l168-127.96875c3.511719-2.671874 8.527344-1.992187 11.207031 1.519532 2.671876 3.503906 1.992188 8.527344-1.519531 11.207031l-168 127.96875c-1.441406 1.113281-3.144531 1.640625-4.832031 1.640625zm0 0"/><path d="m215.984375 435.0625c-1.6875 0-3.390625-.527344-4.832031-1.628906l-88-67.035156c-3.511719-2.679688-4.191406-7.703126-1.519532-11.207032 2.679688-3.511718 7.695313-4.191406 11.207032-1.519531l88 67.03125c3.511718 2.679687 4.191406 7.703125 1.519531 11.207031-1.574219 2.066406-3.960937 3.152344-6.375 3.152344zm0 0"/><path d="m255.945312 128c-13.234374 0-24-10.769531-24-24 0-4.414062 3.574219-8 8-8 4.421876 0 8 3.585938 8 8 0 4.40625 3.582032 8 8 8 4.421876 0 8 3.585938 8 8s-3.578124 8-8 8zm0 0"/><path d="m295.960938 160c-13.234376 0-24-10.769531-24-24s10.765624-24 24-24c4.421874 0 8 3.585938 8 8s-3.578126 8-8 8c-4.417969 0-8 3.59375-8 8s3.582031 8 8 8c4.421874 0 8 3.585938 8 8s-3.578126 8-8 8zm0 0"/><path d="m295.960938 128h-40.015626c-4.425781 0-8-3.585938-8-8s3.574219-8 8-8h40.015626c4.421874 0 8 3.585938 8 8s-3.578126 8-8 8zm0 0"/><path d="m335.992188 160h-40.03125c-4.425782 0-8-3.585938-8-8s3.574218-8 8-8h40.03125c4.421874 0 8 3.585938 8 8s-3.578126 8-8 8zm0 0"/><path d="m176.039062 128c-4.421874 0-8-3.585938-8-8s3.578126-8 8-8c4.417969 0 8-3.59375 8-8 0-4.414062 3.578126-8 8-8 4.425782 0 8 3.585938 8 8 0 13.230469-10.765624 24-24 24zm0 0"/><path d="m136.023438 160c-4.421876 0-8-3.585938-8-8s3.578124-8 8-8c4.417968 0 8-3.59375 8-8s-3.582032-8-8-8c-4.421876 0-8-3.585938-8-8s3.578124-8 8-8c13.234374 0 24 10.769531 24 24s-10.765626 24-24 24zm0 0"/><path d="m176.039062 128h-40.015624c-4.421876 0-8-3.585938-8-8s3.578124-8 8-8h40.015624c4.425782 0 8 3.585938 8 8s-3.574218 8-8 8zm0 0"/><path d="m136.023438 160h-40.03125c-4.425782 0-8-3.585938-8-8s3.574218-8 8-8h40.03125c4.425781 0 8 3.585938 8 8s-3.574219 8-8 8zm0 0"/><path d="m335.992188 216.023438c-4.425782 0-8-3.582032-8-8v-56.023438c0-4.414062 3.574218-8 8-8 4.421874 0 8 3.585938 8 8v56.023438c0 4.417968-3.578126 8-8 8zm0 0"/><path d="m95.992188 216.023438c-4.425782 0-8-3.582032-8-8v-56.023438c0-4.414062 3.574218-8 8-8 4.421874 0 8 3.585938 8 8v56.023438c0 4.417968-3.578126 8-8 8zm0 0"/><path d="m359.992188 160c-4.425782 0-8-3.585938-8-8 0-74.992188-61.007813-136-136-136-4.425782 0-8-3.585938-8-8s3.574218-8 8-8c83.816406 0 152 68.183594 152 152 0 4.414062-3.578126 8-8 8zm0 0"/><path d="m359.992188 224.023438c-4.425782 0-8-3.582032-8-8v-64.023438c0-4.414062 3.574218-8 8-8 4.421874 0 8 3.585938 8 8v64.023438c0 4.417968-3.578126 8-8 8zm0 0"/><path d="m392.007812 256.015625h-62.855468c-4.425782 0-8-3.582031-8-8 0-4.414063 3.574218-8 8-8h62.855468c4.425782 0 8 3.585937 8 8 0 4.417969-3.574218 8-8 8zm0 0"/><path d="m72.023438 160c-4.421876 0-8-3.585938-8-8 0-83.816406 68.183593-152 152-152 4.425781 0 8 3.585938 8 8s-3.574219 8-8 8c-74.992188 0-136 61.007812-136 136 0 4.414062-3.574219 8-8 8zm0 0"/><path d="m72.023438 224.023438c-4.421876 0-8-3.582032-8-8v-64.023438c0-4.414062 3.578124-8 8-8 4.425781 0 8 3.585938 8 8v64.023438c0 4.417968-3.574219 8-8 8zm0 0"/><path d="m392.007812 256.015625c-22.054687 0-40-17.945313-40-39.992187 0-22.054688 17.945313-40 40-40 22.054688 0 40 17.945312 40 40 0 22.046874-17.945312 39.992187-40 39.992187zm0-63.992187c-13.230468 0-24 10.769531-24 24 0 13.234374 10.769532 23.992187 24 23.992187 13.230469 0 24-10.757813 24-23.992187 0-13.230469-10.769531-24-24-24zm0 0"/><path d="m392.246094 224c-4.421875 0-8.039063-3.585938-8.039063-8s3.535157-8 7.953125-8h.085938c4.417968 0 8 3.585938 8 8s-3.582032 8-8 8zm0 0"/><path d="m392.007812 192c-22.054687 0-40-17.945312-40-39.992188 0-22.054687 17.945313-40 40-40 22.054688 0 40 17.945313 40 40 0 22.046876-17.945312 39.992188-40 39.992188zm0-63.992188c-13.230468 0-24 10.769532-24 24 0 13.230469 10.769532 23.992188 24 23.992188 13.230469 0 24-10.761719 24-23.992188 0-13.230468-10.769531-24-24-24zm0 0"/><path d="m392.246094 159.984375c-4.421875 0-8.039063-3.585937-8.039063-8 0-4.417969 3.535157-8 7.953125-8h.085938c4.417968 0 8 3.582031 8 8 0 4.414063-3.582032 8-8 8zm0 0"/><path d="m380.144531 128.425781c-16.410156 0-31.402343-10.273437-37.3125-25.5625-3.855469-9.953125-3.617187-20.824219.6875-30.589843 4.3125-9.777344 12.175781-17.289063 22.152344-21.152344 4.640625-1.800782 9.503906-2.707032 14.441406-2.707032 16.390625 0 31.382813 10.273438 37.320313 25.554688 7.957031 20.566406-2.289063 43.773438-22.847656 51.742188-4.65625 1.800781-9.507813 2.714843-14.441407 2.714843zm-.039062-64.011719c-2.953125 0-5.867188.546876-8.65625 1.632813-5.984375 2.320313-10.707031 6.824219-13.289063 12.679687-2.574218 5.859376-2.726562 12.378907-.40625 18.351563 4.605469 11.9375 18.980469 18.378906 31.039063 13.714844 12.335937-4.785157 18.488281-18.703125 13.710937-31.039063-3.558594-9.167968-12.566406-15.339844-22.398437-15.339844zm0 0"/><path d="m380.359375 96.398438c-4.421875 0-8.039063-3.582032-8.039063-8 0-4.414063 3.535157-8 7.953126-8h.085937c4.417969 0 8 3.585937 8 8 0 4.417968-3.582031 8-8 8zm0 0"/><path d="m102.863281 256.015625h-62.855469c-4.421874 0-8-3.582031-8-8 0-4.414063 3.578126-8 8-8h62.855469c4.425781 0 8 3.585937 8 8 0 4.417969-3.574219 8-8 8zm0 0"/><path d="m40.007812 256.015625c-22.054687 0-39.9999995-17.945313-39.9999995-39.992187 0-22.054688 17.9453125-40 39.9999995-40 22.054688 0 40 17.945312 40 40 0 22.046874-17.945312 39.992187-40 39.992187zm0-63.992187c-13.230468 0-24 10.769531-24 24 0 13.234374 10.769532 23.992187 24 23.992187 13.230469 0 24-10.757813 24-23.992187 0-13.230469-10.769531-24-24-24zm0 0"/><path d="m40.246094 224c-4.421875 0-8.039063-3.585938-8.039063-8s3.535157-8 7.953125-8h.085938c4.417968 0 8 3.585938 8 8s-3.582032 8-8 8zm0 0"/><path d="m40.007812 192c-22.054687 0-39.9999995-17.945312-39.9999995-39.992188 0-22.054687 17.9453125-40 39.9999995-40 22.054688 0 40 17.945313 40 40 0 22.046876-17.945312 39.992188-40 39.992188zm0-63.992188c-13.230468 0-24 10.769532-24 24 0 13.230469 10.769532 23.992188 24 23.992188 13.230469 0 24-10.761719 24-23.992188 0-13.230468-10.769531-24-24-24zm0 0"/><path d="m40.246094 159.984375c-4.421875 0-8.039063-3.585937-8.039063-8 0-4.417969 3.535157-8 7.953125-8h.085938c4.417968 0 8 3.582031 8 8 0 4.414063-3.582032 8-8 8zm0 0"/><path d="m51.871094 128.425781c-4.933594 0-9.792969-.914062-14.429688-2.707031-20.5625-7.964844-30.816406-31.175781-22.847656-51.734375 5.933594-15.296875 20.925781-25.558594 37.316406-25.558594 4.9375 0 9.800782.910157 14.441406 2.703125 9.96875 3.863282 17.832032 11.375 22.152344 21.152344 4.304688 9.765625 4.542969 20.640625.6875 30.597656-5.917968 15.273438-20.910156 25.546875-37.320312 25.546875zm.039062-64.011719c-9.832031 0-18.839844 6.171876-22.398437 15.347657-4.777344 12.328125 1.375 26.253906 13.710937 31.03125 2.785156 1.078125 5.699219 1.621093 8.648438 1.621093 9.839844 0 18.839844-6.15625 22.394531-15.335937 2.320313-5.980469 2.167969-12.503906-.410156-18.359375-2.582031-5.863281-7.304688-10.367188-13.289063-12.679688-2.78125-1.070312-5.703125-1.625-8.65625-1.625zm0 0"/><path d="m52.144531 96.398438c-4.425781 0-8.039062-3.582032-8.039062-8 0-4.414063 3.535156-8 7.949219-8h.089843c4.414063 0 8 3.585937 8 8 0 4.417968-3.59375 8-8 8zm0 0"/><path d="m255.960938 112h-79.9375c-8.824219 0-16-7.175781-16-16v-48.007812c0-8.824219 7.175781-16 16-16h79.9375c8.824218 0 16 7.175781 16 16v48.007812c0 8.824219-7.175782 16-16 16zm0-16v8zm-79.9375-48.007812v48.007812h79.914062l.023438-48.007812zm0 0"/><path d="m192.039062 112c-4.421874 0-8-3.585938-8-8v-64.007812c0-4.417969 3.578126-8 8-8 4.425782 0 8 3.582031 8 8v64.007812c0 4.414062-3.574218 8-8 8zm0 0"/><path d="m239.992188 112c-4.425782 0-8-3.585938-8-8v-64.007812c0-4.417969 3.574218-8 8-8 4.421874 0 8 3.582031 8 8v64.007812c0 4.414062-3.578126 8-8 8zm0 0"/></svg>