<?xml version="1.0" encoding="iso-8859-1"?>
<!-- Generator: Adobe Illustrator 19.0.0, SVG Export Plug-In . SVG Version: 6.00 Build 0)  -->
<svg version="1.1" id="Layer_1" xmlns="http://www.w3.org/2000/svg" xmlns:xlink="http://www.w3.org/1999/xlink" x="0px" y="0px"
	 viewBox="0 0 512 512" style="enable-background:new 0 0 512 512;" xml:space="preserve">
<path style="fill:#58595B;" d="M371.926,311.37c0,0-36.193,175.068-119.518,191.902l0,0h-4.162l0,0
	c-35.592,0-69.812-13.727-95.537-38.324l0,0c-33.562-32.09-47.213-79.781-35.719-124.77l7.576-29.649L371.926,311.37z"/>
<g>
	<path style="fill:#E0A88F;" d="M101.986,304.074h28.38v-87.813h-28.38c-6.053,0-10.96,4.907-10.96,10.96v65.891
		C91.025,299.167,95.933,304.074,101.986,304.074z"/>
	<path style="fill:#E0A88F;" d="M394.505,216.262h-30.68v87.813h30.68c6.053,0,10.96-4.907,10.96-10.96v-65.891
		C405.466,221.169,400.559,216.262,394.505,216.262z"/>
</g>
<path style="fill:#414042;" d="M383.664,340.179l-11.739-28.808l-50.126-0.841l7.576,29.649
	c11.496,44.988-2.157,92.679-35.719,124.77l0,0c-19.607,18.747-44.152,31.171-70.474,36.025c8.213,1.514,16.598,2.299,25.062,2.299
	h4.162l0,0c35.592,0,69.812-13.727,95.537-38.324l0,0C381.506,432.859,395.159,385.167,383.664,340.179z"/>
<path style="fill:#F2C6A0;" d="M124.565,133.271v177.258l28.531,13.425c13.418,6.314,27.307,11.222,41.457,14.741
	c2.498,0.621,5.12,0.054,7.166-1.508c12.137-9.266,28.504-14.953,46.526-14.953c18.155,0,34.638,5.77,46.801,15.159
	c2.038,1.573,4.658,2.155,7.159,1.545c13.979-3.408,27.711-8.166,40.994-14.301l-0.733-13.265l-2.525-173.596L124.565,133.271z"/>
<path style="fill:#E6B593;" d="M124.565,133.271v0.759v94.554c0-22.082,13.139-45.022,29.46-60.126
	c3.162-2.925,8.273-1.427,9.325,2.75c6.521,25.892,22.335,43.729,53.104,43.729h40.463c14.278,0,26.728,0.374,39.175,0.725
	c19.027,0.535,34.171,16.114,34.171,35.148v28.92c0,19.29-11.214,36.82-28.726,44.907l0,0c-5.265,2.432-10.604,4.638-15.998,6.639
	c3.395,1.813,6.583,3.859,9.514,6.122c2.036,1.572,4.655,2.149,7.153,1.541c13.979-3.408,27.712-8.166,40.995-14.301l28.726-13.265
	V155.565v-17.791L124.565,133.271z"/>
<path style="fill:#58595B;" d="M179.641,8.727c-11.06,0-20.027,8.967-20.027,20.027v0.445l0,0c-42.366,0-76.71,34.345-76.71,76.71
	v51.386c0,28.957,17.055,34.417,41.663,45.919v-8.298c0-22.081,13.137-45.021,29.457-60.124c3.162-2.927,8.276-1.427,9.328,2.751
	c6.522,25.891,22.336,43.727,53.104,43.727h40.463c77.901,0,141.052-63.152,141.052-141.053V8.727H179.641z"/>
<g>
	<path style="fill:#414042;" d="M99.823,137.544c-1.052-4.177-6.166-5.677-9.328-2.751c-2.627,2.432-5.171,5.069-7.593,7.871v14.632
		c0,28.957,17.055,53.917,41.663,65.421v-27.799c0-6.309,1.076-12.689,2.989-18.936C112.9,168.863,104.233,155.05,99.823,137.544z"
		/>
	<path style="fill:#414042;" d="M366.206,8.727v31.49c0,77.901-63.152,141.053-141.053,141.053h63.528
		c77.901,0,141.053-63.152,141.053-141.053V8.727H366.206z"/>
	<circle style="fill:#414042;" cx="295.471" cy="243.363" r="9.469"/>
	<circle style="fill:#414042;" cx="192.791" cy="243.363" r="9.469"/>
</g>
<path d="M438.461,40.219V8.727c0-4.82-3.908-8.727-8.727-8.727c-4.82,0-8.727,3.907-8.727,8.727v31.491
	c0,72.965-59.361,132.325-132.325,132.325h-72.227c-11.901,0-48.113,0-48.113-69.213v-4.62c0.256-14.241,0.176-28.41,0.085-42.307
	c-0.036-5.428-0.07-10.968-0.085-16.512V28.755c0-6.23,5.069-11.3,11.3-11.3h205.005c4.82,0,8.727-3.907,8.727-8.727
	S389.466,0,384.646,0H179.641c-12.98,0-23.976,8.649-27.536,20.485l-0.609,0.003c-1.541,0.014-2.896,0.332-4.059,0.867
	c-27.862,4.129-53.285,22.408-65.612,48.123c-0.73,1.47-3.662,8.51-3.752,8.734c-2.927,7.315-2.952,14.331-2.952,20.534
	c-0.168,4.468-0.401,8.937-0.649,13.663c-1.449,27.628-3.089,58.942,10.847,85.516c2.238,4.268,7.514,5.915,11.782,3.676
	c4.268-2.239,5.915-7.514,3.676-11.782c-11.713-22.335-10.27-49.869-8.874-76.496c0.243-4.639,0.673-24.17,2.268-28.352
	c0.668-1.385,1.27-2.889,1.853-4.349c0.506-1.265,1.029-2.572,1.449-3.412c0.023-0.045,0.045-0.092,0.067-0.137
	c9.976-20.859,30.723-35.596,53.339-38.587c0.001,0.531,0.005,1.059,0.006,1.59v58.753c-0.173,9.343-0.493,18.689-1.078,27.962
	c-1.399,0.68-9.858,8.4-10.458,9c-12.638,12.637-20.734,29.233-23.415,47.992c-0.021,0.148-0.038,0.296-0.051,0.443
	c-0.738,8.115-0.593,15.831-0.372,23.306h-13.526c-10.857,0-19.688,8.832-19.688,19.688v65.891c0,10.857,8.832,19.688,19.688,19.688
	h12.991l-6.443,25.216c-12.257,47.97,2.359,99.023,38.143,133.239C174.156,497.53,210.226,512,248.246,512c0.719,0,3.444,0,4.162,0
	c38.018,0,74.09-14.47,101.569-40.744c35.784-34.216,50.401-85.269,38.143-133.239c-0.099-0.385-10.186-25.216-10.186-25.216h12.572
	c10.857,0,19.688-8.832,19.688-19.688v-65.891c0-10.857-8.832-19.688-19.688-19.688h-13.852V160.31c0-0.621-0.068-1.225-0.191-1.811
	C415.728,131.07,438.461,88.251,438.461,40.219z M99.752,293.114v-65.891c0-1.232,1.002-2.233,2.233-2.233h13.852v70.358h-13.851
	C100.753,295.347,99.752,294.345,99.752,293.114z M341.914,458.64c-24.215,23.154-56.002,35.905-89.506,35.905
	c-0.719,0-3.444,0-4.162,0c-33.503,0-65.29-12.751-89.506-35.905c-31.235-29.866-43.992-74.43-33.294-116.302l4.961-19.416
	l18.974,8.929c15.092,7.102,31.018,12.596,47.332,16.333c2.715,0.621,5.562-0.09,7.666-1.913
	c11.22-9.729,27.209-15.309,43.867-15.309c16.789,0,32.861,5.649,44.095,15.501c1.608,1.409,3.658,2.166,5.754,2.166
	c0.635,0,1.277-0.07,1.91-0.212c9.446-2.118,18.837-4.843,27.912-8.1c6.405-2.299,12.779-4.908,18.944-7.756l20.432-9.435
	l8.062,19.783C385.792,384.614,373.008,428.909,341.914,458.64z M394.505,224.989c1.232,0,2.233,1.002,2.233,2.233v65.891
	c0,1.232-1.002,2.233-2.233,2.233h-13.852v-70.357H394.505z M363.199,216.262v87.813v1.714l-23.658,10.925
	c-5.702,2.633-11.597,5.047-17.522,7.174c-7.078,2.541-14.366,4.733-21.718,6.531c-14.163-10.936-32.462-16.912-52.055-16.912
	c-19.429,0-37.619,5.894-51.743,16.68c-13.663-3.411-26.995-8.156-39.689-14.129l-23.519-11.067v-0.916v-81.358v-6.455
	c0-0.436-0.043-0.862-0.105-1.282c-0.047-1.914-0.102-3.802-0.159-5.655c-0.243-7.953-0.475-15.469,0.219-23.291
	c2.117-14.521,8.226-27.331,17.697-37.135c2.29-1.496,3.823-3.358,4.997-4.785c0.045-0.055,0.086-0.102,0.13-0.157
	c2.148,7.187,4.954,13.575,8.424,19.117c11.184,17.866,28.666,26.924,51.96,26.924h72.227c27.109,0,52.559-7.239,74.518-19.887
	v46.151H363.199z"/>
<path d="M274.161,201.011c-19.102,0-34.643,15.54-34.643,34.643v51.618c0,4.82,3.908,8.727,8.727,8.727s8.727-3.907,8.727-8.727
	v-51.618c0-9.478,7.71-17.188,17.188-17.188c4.82,0,8.727-3.908,8.727-8.727S278.981,201.011,274.161,201.011z"/>
<circle cx="295.471" cy="243.363" r="9.469"/>
<circle cx="192.791" cy="243.363" r="9.469"/>
<path d="M272.513,362.538c-7.231,1.998-14.741,3.057-22.321,3.146c-8.851,0.108-17.634-1.115-26.045-3.622
	c-4.621-1.377-9.479,1.252-10.858,5.869c-1.378,4.618,1.251,9.48,5.869,10.858c9.699,2.892,19.779,4.356,29.983,4.356
	c0.418,0,0.837-0.002,1.256-0.007c9.081-0.107,18.085-1.378,26.764-3.776c4.646-1.284,7.372-6.09,6.087-10.737
	C281.964,363.979,277.157,361.256,272.513,362.538z"/>
<g>
</g>
<g>
</g>
<g>
</g>
<g>
</g>
<g>
</g>
<g>
</g>
<g>
</g>
<g>
</g>
<g>
</g>
<g>
</g>
<g>
</g>
<g>
</g>
<g>
</g>
<g>
</g>
<g>
</g>
</svg>
