<svg height="512" viewBox="0 0 512 512" width="512" xmlns="http://www.w3.org/2000/svg"><g id="Filled_outline" data-name="Filled outline"><path d="m460.821 257.537-4.821 14.463-48 48-384-32v96h432l32-112v-10.053a13.947 13.947 0 0 0 -13.947-13.947 13.947 13.947 0 0 0 -13.232 9.537z" fill="#feb784"/><path d="m408 368a15.979 15.979 0 0 1 -16 16h-104l-56-176-46.44 56.76-97.56 119.24h-64v-96l157.55-143.23a64.491 64.491 0 0 1 104.8 28.06l49.65 155.17 40 24h16a16 16 0 0 1 16 16z" fill="#fec9a3"/><path d="m456 160h32v48h-32z" fill="#fec9a3"/><path d="m185.56 264.76-97.56 119.24h-64v-26.86c58.81-12.53 108.16-47.91 161.56-92.38z" fill="#fec093"/><path d="m424 160-48.62-27.78a31.953 31.953 0 0 0 -15.88-4.22h-47.25a23.985 23.985 0 0 0 -22.28 15.09l-4.03 10.05a83.234 83.234 0 0 0 -5.94 30.86h8.08a15.947 15.947 0 0 0 15.92 16h56a54.692 54.692 0 0 0 38.63 16h57.37v-56zm-112 8 8-8 32 8z" fill="#4db7e5"/><path d="m321.28 232.83 12.23 39.17-45.51 8-12.55-35.55a77.215 77.215 0 0 1 5.03-62.66l7.52-13.79h48.01l-11.6 23.75a55.909 55.909 0 0 0 -3.13 41.08z" fill="#ebebe9"/><path d="m336.01 168-11.6 23.75a55.333 55.333 0 0 0 -5.21 17.5c-21.12 6.26-36.26 14.04-47.11 22.13a77.2 77.2 0 0 1 8.39-49.59l7.52-13.79z" fill="#e0e0de"/><path d="m312 168h-7.144c-7.97 0-15.357 5.446-16.637 13.312a16.011 16.011 0 0 0 15.781 18.688h40v-32z" fill="#4db7e5"/><path d="m312 168h40l-32-8z" fill="none"/><path d="m456 160v56h-57.37a54.66 54.66 0 0 1 -30.78-9.5c21.01-11.75 41.8-26.93 59.56-46.5z" fill="#48add9"/><path d="m456 160h16v48h-16z" fill="#fec093"/><path d="m474.078 240a22.024 22.024 0 0 0 -20.878 15.008l-4.2 12.68-44.031 44.031-67.6-5.64-4.015-12.517-15.235 4.876 10.266 32.015a8.035 8.035 0 0 0 3.5 4.406l40 24a7.955 7.955 0 0 0 4.115 1.141h16a8.005 8.005 0 0 1 8 8 7.818 7.818 0 0 1 -2.453 5.7 7.674 7.674 0 0 1 -5.547 2.3h-98.148l-54.227-170.43a8 8 0 0 0 -13.813-2.632l-141.601 173.062h-52.211v-84.461l154.9-140.812a56.5 56.5 0 0 1 71.29-3.907c1.343.992 2.64 2.055 3.9 3.172l10.61-11.984c-1.6-1.414-3.257-2.758-5.039-4.086a72.507 72.507 0 0 0 -91.515 4.953l-157.529 143.203a8.011 8.011 0 0 0 -2.617 5.922v96a8 8 0 0 0 8 8h432a8.006 8.006 0 0 0 7.7-5.8l32-112a8.011 8.011 0 0 0 .3-2.2v-10.078a21.949 21.949 0 0 0 -21.922-21.922zm-245.226-15.523 23.721 74.558-79.305-6.62zm-67.874 82.96 96.84 8.084 19.241 60.479h-172.177zm319.022-36.554-30.031 105.117h-35.425a23.8 23.8 0 0 0 -22.544-32h-13.781l-35.519-21.312-.038-.119 64.679 5.4a7.843 7.843 0 0 0 6.32-2.313l48-48a7.956 7.956 0 0 0 1.938-3.14l4.781-14.43a6.013 6.013 0 0 1 5.7-4.086 5.928 5.928 0 0 1 5.92 5.922z"/><path d="m488 168v-16h-61.875l-46.773-26.727a40.062 40.062 0 0 0 -19.852-5.273h-47.25a31.841 31.841 0 0 0 -29.711 20.117l-9.969 24.914a7.767 7.767 0 0 0 2.787 9.411l-1.912 3.5a85.68 85.68 0 0 0 -5.547 69.2l12.563 35.523a7.988 7.988 0 0 0 7.531 5.335 7.757 7.757 0 0 0 1.4-.125l45.515-7.992a8 8 0 0 0 6.25-10.266l-12.242-39.211a46.913 46.913 0 0 1 -1.352-22.406h29.257a63.135 63.135 0 0 0 41.805 16h57.375a8 8 0 0 0 8-8h24v-16h-24v-32zm-174.352 67.18 9.524 30.508-29.891 5.257-10.3-29.125a69.548 69.548 0 0 1 .127-46.12 23.489 23.489 0 0 0 20.892 12.3h7.354a62.841 62.841 0 0 0 2.294 27.18zm84.977-27.18a46.951 46.951 0 0 1 -32.969-13.656 7.994 7.994 0 0 0 -5.656-2.344h-56a8 8 0 0 1 -7.883-9.4c.6-3.7 4.438-6.6 8.742-6.6h47.141a8 8 0 0 0 1.938-15.758l-32-8a7.978 7.978 0 0 0 -7.594 2.1l-5.656 5.658h-16.868l5.578-13.945a15.912 15.912 0 0 1 14.852-10.055h47.25a24.007 24.007 0 0 1 11.906 3.164l48.625 27.781a7.955 7.955 0 0 0 3.969 1.055h24v40z"/></g></svg>