<?xml version="1.0"?>
<svg xmlns="http://www.w3.org/2000/svg" viewBox="0 0 512 512" width="512" height="512"><g id="Filled_outline" data-name="Filled outline"><path d="M336,488H176a155.883,155.883,0,0,0,8-49.3V376H328v62.7a155.883,155.883,0,0,0,8,49.3Z" style="fill:#fec093"/><path d="M184,376v52.56a119.138,119.138,0,0,0,144,0V376Z" style="fill:#feb784"/><path d="M400,168v77.9a213.965,213.965,0,0,1-54.92,143.13,119.849,119.849,0,0,1-134.67,30.66c-1.03-.43-2.06-.87-3.08-1.32a119.821,119.821,0,0,1-21.75-12.55c-.98-.71-1.94-1.44-2.9-2.18a120.281,120.281,0,0,1-15.76-14.61A213.965,213.965,0,0,1,112,245.9V168a143.281,143.281,0,0,1,24.74-80.72A143.992,143.992,0,0,1,400,168Z" style="fill:#fec9a3"/><path d="M182.68,403.64a120.281,120.281,0,0,1-15.76-14.61A213.965,213.965,0,0,1,112,245.9V168a143.281,143.281,0,0,1,24.74-80.72,146.1,146.1,0,0,1,29.96,88.48v25.15L180,267.44a23.667,23.667,0,0,1-46.04,10.87l6.98,25.61s27.45,50.31,42.37,77.41A22.011,22.011,0,0,1,182.68,403.64Z" style="fill:#fec093"/><path d="M400,168v77.9a213.965,213.965,0,0,1-54.92,143.13,119.849,119.849,0,0,1-134.67,30.66,136.908,136.908,0,0,0,19.53-6.96,138.4,138.4,0,0,0,46.66-33.88,247.052,247.052,0,0,0,63.43-165.29V123.59a164.962,164.962,0,0,0-24.51-86.75A144.029,144.029,0,0,1,400,168Z" style="fill:#fec093"/><path d="M256,24A144,144,0,0,0,112,168v35.3a144,144,0,0,1,288,0V168A144,144,0,0,0,256,24Z" style="fill:#ffb531"/><path d="M159.483,360.142C145.575,334.888,120,288,120,288l-6.508-23.862a22.058,22.058,0,0,0,42.91-10.13L144,192V168.568A136.565,136.565,0,0,0,104,72V16H24V162.807a32.009,32.009,0,0,0,1.642,10.119L64,288l59.89,93.745a20.344,20.344,0,0,0,29.352,5.323l.4-.3A20.717,20.717,0,0,0,159.483,360.142Z" style="fill:#fec9a3"/><path d="M352.517,360.142C366.425,334.888,392,288,392,288l6.508-23.862a22.058,22.058,0,0,1-42.91-10.13L368,192V168.568A136.565,136.565,0,0,1,408,72V16h80V162.807a32.009,32.009,0,0,1-1.642,10.119L448,288l-59.89,93.745a20.344,20.344,0,0,1-29.352,5.323l-.4-.3A20.717,20.717,0,0,1,352.517,360.142Z" style="fill:#fec9a3"/><path d="M215.141,295.727l-2.11.843,5.938,14.86,2.109-.848c21.531-8.609,48.313-8.613,69.844,0l2.109.844,5.938-14.86-2.11-.84C271.594,285.613,240.406,285.617,215.141,295.727Z"/><rect x="248" y="176" width="16" height="88"/><path d="M480,16V162.809a24.053,24.053,0,0,1-1.227,7.586L440.727,284.527l-59.36,92.911a12.227,12.227,0,0,1-8.2,5.5A13.087,13.087,0,0,1,359.523,364c13.915-25.266,39.5-72.168,39.5-72.168a8.057,8.057,0,0,0,.7-1.727l6.471-23.722,25.435-79.957-15.25-4.852-25.492,80.137.058.018c-.035.111-.121.189-.152.3a14.052,14.052,0,0,1-18.781,9.352,14.058,14.058,0,0,1-8.563-15.8l12.4-62.008A8.21,8.21,0,0,0,376,192V168.566a127.74,127.74,0,0,1,37.656-90.91A8,8,0,0,0,416,72V16H400V68.738a145.541,145.541,0,0,0-15.086,18.844,151.725,151.725,0,0,0-257.835-.01A145.548,145.548,0,0,0,112,68.738V16H96V72a8,8,0,0,0,2.344,5.656A127.742,127.742,0,0,1,136,168.57V192a8.21,8.21,0,0,0,.156,1.57l12.4,62.008a14.061,14.061,0,0,1-8.563,15.809,14.057,14.057,0,0,1-18.781-9.356c-.031-.113-.117-.191-.152-.3l.058-.018L95.625,181.574l-15.25,4.852,25.435,79.957,6.471,23.722a8.057,8.057,0,0,0,.7,1.727s25.585,46.9,39.5,72.168c3.085,5.594,1.554,12.477-4.032,16.672a12.36,12.36,0,0,1-9.609,2.269,12.209,12.209,0,0,1-8.2-5.5l-59.36-92.911L33.234,170.4A23.9,23.9,0,0,1,32,162.809V16H16V162.809a39.816,39.816,0,0,0,2.055,12.648L56.414,290.531a7.957,7.957,0,0,0,.844,1.778l59.89,93.746a28.451,28.451,0,0,0,18.836,12.629,27.791,27.791,0,0,0,4.977.449,29.062,29.062,0,0,0,17.484-5.969c.318-.238.563-.532.869-.781.576.653,1.108,1.361,1.694,2A126.629,126.629,0,0,0,176,408.366v30.353a148.256,148.256,0,0,1-7.594,46.761A8,8,0,0,0,176,496H336a8,8,0,0,0,7.594-10.52A148.256,148.256,0,0,1,336,438.719V408.372a126.3,126.3,0,0,0,14.938-13.927c.62-.677,1.167-1.4,1.772-2.091.431.359.788.769,1.243,1.111a28.348,28.348,0,0,0,40.9-7.41l59.89-93.746a7.957,7.957,0,0,0,.844-1.778l38.367-115.078A39.991,39.991,0,0,0,496,162.809V16ZM373.752,107.216c-2.072-2.548-4.232-4.92-6.408-7.251L371.309,96c1.481,2.38,2.884,4.821,4.23,7.311C374.891,104.589,374.361,105.92,373.752,107.216ZM361.981,82.7,355.886,88.8a148.6,148.6,0,0,0-19.1-14.274l8.84-8.839A135.168,135.168,0,0,1,361.981,82.7ZM189.835,66.52,179.157,55.843a135.157,135.157,0,0,1,25-13.63l7.8,15.59A145.4,145.4,0,0,0,189.835,66.52Zm38.1-12.55-8.456-16.9A135.88,135.88,0,0,1,248,32.39V51.53A148.66,148.66,0,0,0,227.933,53.97ZM264,32.277a136.655,136.655,0,0,1,28.6,4.7l-8.524,17A149.586,149.586,0,0,0,264,51.531Zm43.852,9.966a134.681,134.681,0,0,1,25.061,13.53l-10.75,10.748A145.462,145.462,0,0,0,300.05,57.8ZM166.479,65.791l8.734,8.732a146.993,146.993,0,0,0-19.1,14.275l-6.011-6.01a134.876,134.876,0,0,1,9.7-10.96C161.945,69.695,164.227,67.763,166.479,65.791Zm-25.8,30.2,3.978,3.977c-2.182,2.342-4.348,4.715-6.408,7.248-.606-1.29-1.134-2.615-1.779-3.888C137.812,100.844,139.188,98.382,140.678,95.993ZM325.3,480H186.7a163.835,163.835,0,0,0,5.3-41.281V419.534a130.018,130.018,0,0,0,12.117,6.177,127.786,127.786,0,0,0,103.781,0,130.069,130.069,0,0,0,12.1-6.17v19.182A163.835,163.835,0,0,0,325.3,480Zm13.789-96.3A110.982,110.982,0,0,1,301.4,411.086a112.292,112.292,0,0,1-90.781,0,111.047,111.047,0,0,1-37.758-27.457c-1.476-1.607-2.812-3.293-4.193-4.95a28.372,28.372,0,0,0-2.174-22.4c-11.554-20.988-31.18-56.929-37.469-68.449a30.049,30.049,0,0,0,35.219-35.394l-5.418-27.1c7.073.692,14.192,1.168,21.34,1.168a217,217,0,0,0,37.211-3.184l-2.75-15.758a202.861,202.861,0,0,1-59.1,1.3L152,191.207v-13.8c18.06-9.643,39.874-11.981,62.031-6.374l3.938-15.508c-23.254-5.9-46.332-4.239-66.38,4.35a144.279,144.279,0,0,0-6.442-35.148,133.968,133.968,0,0,1,13.259-16.17c.43-.481.914-.961,1.406-1.461.415-.41.813-.825,1.618-1.532a132.851,132.851,0,0,1,30.609-22.289,130.08,130.08,0,0,1,33.328-12.453,134.647,134.647,0,0,1,61.36.02,129.955,129.955,0,0,1,33.281,12.461A133.094,133.094,0,0,1,350.7,105.691c1.07,1,2.055,1.989,3.164,3.172a130.723,130.723,0,0,1,12.986,15.863,144.217,144.217,0,0,0-6.442,35.151c-20.044-8.586-43.113-10.241-66.38-4.35l3.938,15.508c22.157-5.614,43.977-3.277,62.031,6.372v13.8l-3.681,18.411a200.72,200.72,0,0,1-50.944-2.059l-2.75,15.765a215.6,215.6,0,0,0,36.773,3.129c4.564,0,9.116-.176,13.647-.46l-5.287,26.445a30.055,30.055,0,0,0,35.219,35.394c-6.289,11.52-25.907,47.461-37.469,68.449a28.169,28.169,0,0,0-2.133,22.353C341.969,380.323,340.617,382.027,339.086,383.7Z"/></g></svg>
